# xmcd
#
# Track frame offsets:
#	150
#	9030
#	22918
#	35501
#	53242
#	88671
#	97596
#	106776
#	128152
#	147188
#	171988
#	186301
#	194715
#
# Disc length: 2832 seconds
#
# Revision: 1
# Processed by: cddbd v1.5.2PL0 Copyright (c) Steve Scherf et al.
# Submitted via: audiograbber 1.83.01
#
DISCID=a00b0e0d
DTITLE=Queen - Rock Montreal [CD1)
DYEAR=2007
DGENRE=Rock
TTITLE0=Intro
TTITLE1=We will Rock you (fast)
TTITLE2=Let me entertain you
TTITLE3=Play the game
TTITLE4=Somebody to love
TTITLE5=Killer Queen
TTITLE6=I'm in love with you car
TTITLE7=Get down make love
TTITLE8=Save me
TTITLE9=Now i'm here
TTITLE10=Dragon attack
TTITLE11=Now i'm here (reprise)
TTITLE12=Love of my life
EXTD=
EXTT0=
EXTT1=
EXTT2=
EXTT3=
EXTT4=
EXTT5=
EXTT6=
EXTT7=
EXTT8=
EXTT9=
EXTT10=
EXTT11=
EXTT12=
PLAYORDER=
